<svg width="209" height="209" viewBox="0 0 209 209" fill="none" xmlns="http://www.w3.org/2000/svg">
<path d="M178.89 135.611L123.205 150.637C119.67 151.58 116.224 151.608 112.867 150.722C109.511 149.836 106.534 148.099 103.937 145.511L63.2781 104.852C60.6854 102.259 58.9483 99.2826 58.0667 95.9215C57.1852 92.5604 57.2135 89.1144 58.1516 85.5836L73.1776 29.899C74.1204 26.3634 75.8292 23.3582 78.3041 20.8833C80.779 18.4085 83.7842 16.6996 87.3197 15.7568L143.004 0.730821C146.54 -0.211992 149.988 -0.242638 153.349 0.638891C156.71 1.52041 159.685 3.2599 162.273 5.85734L202.932 46.5159C205.524 49.1087 207.264 52.0832 208.15 55.4396C209.036 58.796 209.006 62.2443 208.058 65.7846L193.032 121.469C192.089 125.005 190.38 128.01 187.906 130.485C185.431 132.96 182.426 134.669 178.89 135.611ZM162.627 119.348L130.1 86.821L85.3752 98.665L118.079 131.369L162.627 119.348ZM176.769 105.206L188.789 60.6581L156.086 27.9544L144.242 72.6789L176.769 105.206ZM41.181 111.039C39.1776 113.043 36.8205 114.042 34.11 114.038C31.3994 114.033 29.0424 113.033 27.0389 111.039L5.82572 89.8262C1.93663 85.9371 -0.00554933 81.2231 -0.000835879 75.6841C0.00387825 70.1451 1.94606 65.431 5.82572 61.542L27.0389 40.3288C29.0424 38.3253 31.4018 37.3236 34.117 37.3236C36.8323 37.3236 39.187 38.3253 41.181 40.3288C43.1751 42.3322 44.1768 44.6916 44.1862 47.4069C44.1957 50.1222 43.1939 52.4769 41.181 54.4709L19.9678 75.6841L41.181 96.8973C43.1845 98.9007 44.1862 101.26 44.1862 103.975C44.1862 106.691 43.1845 109.045 41.181 111.039ZM147.247 202.963C143.358 206.852 138.646 208.797 133.112 208.797C127.578 208.797 122.861 206.852 118.963 202.963L97.7495 181.75C95.7461 179.747 94.7467 177.39 94.7514 174.679C94.7561 171.968 95.7555 169.611 97.7495 167.608C99.7436 165.604 102.103 164.603 104.828 164.603C107.552 164.603 109.907 165.604 111.892 167.608L133.105 188.821L154.318 167.608C156.321 165.604 158.681 164.603 161.396 164.603C164.111 164.603 166.466 165.604 168.46 167.608C170.454 169.611 171.456 171.971 171.465 174.686C171.475 177.401 170.473 179.756 168.46 181.75L147.247 202.963ZM124.973 67.5524L136.464 23.1814L92.4462 35.0255L80.6022 79.0428L124.973 67.5524Z" fill="#F6FFEE"/>
</svg>
