<svg width="17" height="21" viewBox="0 0 17 21" fill="none" xmlns="http://www.w3.org/2000/svg">
<path d="M8.11523 0.199829C8.29504 0.199863 8.46941 0.241025 8.63672 0.319946C8.76832 0.382007 8.88428 0.470553 8.98535 0.581665L9.08203 0.699829L9.08398 0.702759V0.703735L13.3018 6.76721C13.4365 6.95315 13.5171 7.15343 13.5303 7.36487C13.5433 7.57615 13.4879 7.78328 13.377 7.98303C13.2672 8.18137 13.1243 8.33952 12.9443 8.4469C12.7642 8.55436 12.5584 8.6041 12.334 8.60413H12.2275L15.8174 13.9772L15.9023 14.1188C15.9768 14.2631 16.0198 14.4143 16.0273 14.5709C16.0373 14.7794 15.9822 14.9835 15.875 15.1813L15.876 15.1823C15.769 15.38 15.6273 15.538 15.4482 15.6451C15.2692 15.7522 15.0639 15.8014 14.8398 15.8014H9.5V19.524C9.5 19.8218 9.39722 20.0819 9.19043 20.2897H9.18945C8.98232 20.4967 8.72295 20.6001 8.4248 20.6002H7.89746C7.57042 20.6001 7.28762 20.4894 7.06348 20.2653C6.83934 20.0411 6.72862 19.7583 6.72852 19.4313V19.4303L6.72949 15.8014H1.38965C1.16586 15.8014 0.960222 15.7522 0.78125 15.6451C0.602322 15.5381 0.460861 15.3799 0.353516 15.1823C0.246073 14.9843 0.191231 14.7796 0.201172 14.5709C0.208693 14.4143 0.252823 14.2632 0.327148 14.1188L0.411133 13.9762L4.00391 8.60413H3.89648C3.67215 8.60413 3.4662 8.55425 3.28613 8.4469C3.10616 8.33951 2.96227 8.18137 2.85254 7.98303V7.98401C2.74132 7.78428 2.68678 7.57649 2.7002 7.36487C2.71354 7.15457 2.79306 6.95546 2.92676 6.77014L7.14551 0.703735L7.14844 0.700806C7.26944 0.533264 7.41696 0.403384 7.59277 0.319946L7.71973 0.268188C7.84799 0.223294 7.98016 0.199829 8.11523 0.199829ZM4.71973 7.00549H6.98926L6.78223 7.31604L2.19043 14.2028H14.0391L9.44824 7.31604L9.24121 7.00549H11.5098L8.11426 2.15588L4.71973 7.00549Z" fill="#3A5C2B" stroke="#3A5C2B" stroke-width="0.4"/>
</svg>
