<svg width="22" height="22" viewBox="0 0 22 22" fill="none" xmlns="http://www.w3.org/2000/svg">
<path d="M1 20.3551H12.5385M11 20.3551V16.5089H2.53846V20.3551M12.2108 1.45044L6.69538 6.96583C6.40697 7.25433 6.24494 7.64557 6.24494 8.05352C6.24494 8.46146 6.40697 8.85271 6.69538 9.14121L9.13231 11.5781C9.42081 11.8665 9.81206 12.0286 10.22 12.0286C10.6279 12.0286 11.0192 11.8665 11.3077 11.5781L16.8231 6.06275C17.1115 5.77424 17.2735 5.383 17.2735 4.97506C17.2735 4.56711 17.1115 4.17587 16.8231 3.88736L14.3846 1.45044C14.0961 1.16202 13.7049 1 13.2969 1C12.889 1 12.4977 1.16202 12.2092 1.45044M14.0769 8.81659L21 15.7397" stroke="#3A5C2B" stroke-width="2" stroke-linecap="round" stroke-linejoin="round"/>
</svg>
