<svg width="21" height="21" viewBox="0 0 21 21" fill="none" xmlns="http://www.w3.org/2000/svg">
<path d="M10.4004 0.199829C10.6856 0.199829 10.9665 0.264259 11.2227 0.387329L11.3311 0.44397L11.333 0.444946L19.6543 5.24768C20.0158 5.44916 20.2998 5.76704 20.459 6.14905C20.6181 6.531 20.6437 6.95565 20.5322 7.35413C20.4319 7.74245 20.2088 8.08777 19.8965 8.33948C19.6333 8.5515 19.3186 8.68627 18.9863 8.73303V16.8512C19.3849 16.9329 19.7478 17.1428 20.0186 17.4508C20.3292 17.8045 20.4963 18.2624 20.4854 18.733C20.4743 19.2037 20.2859 19.653 19.959 19.9918C19.632 20.3306 19.1897 20.5344 18.7197 20.5621L18.708 20.5631V20.5621H2.09277C1.5952 20.5621 1.11746 20.3651 0.765625 20.0133C0.413787 19.6615 0.216797 19.1837 0.216797 18.6862C0.216862 18.1888 0.413993 17.7117 0.765625 17.36C1.10183 17.0238 1.55283 16.8298 2.02637 16.8131V8.74866C1.6307 8.73856 1.2476 8.60546 0.933594 8.36292C0.604958 8.10907 0.3708 7.75243 0.267578 7.35022L0.268555 7.34924C0.158504 6.95204 0.183286 6.52961 0.341797 6.14905C0.50095 5.76708 0.784077 5.44916 1.14551 5.24768L9.46777 0.444946L9.46973 0.44397C9.75383 0.284217 10.0745 0.199829 10.4004 0.199829ZM2.09277 18.3278C1.99764 18.3278 1.90614 18.366 1.83887 18.4332C1.7718 18.5004 1.73346 18.5912 1.7334 18.6862C1.7334 18.7813 1.7716 18.8728 1.83887 18.9401C1.90614 19.0073 1.99764 19.0455 2.09277 19.0455H18.708C18.8031 19.0455 18.8946 19.0073 18.9619 18.9401C19.0292 18.8728 19.0674 18.7813 19.0674 18.6862C19.0673 18.5912 19.029 18.5004 18.9619 18.4332C18.8946 18.366 18.8031 18.3278 18.708 18.3278H2.09277ZM13.8408 16.8102H17.4688V8.75159H13.8408V16.8102ZM8.68359 16.8102H12.3174V8.75159H8.68359V16.8102ZM3.54395 16.8102H7.16699V8.75159H3.54395V16.8102ZM10.4004 1.71448C10.3406 1.71448 10.2815 1.73115 10.2305 1.76233L10.2266 1.76428L1.90234 6.5553L1.90332 6.55627C1.83494 6.59665 1.78208 6.65857 1.75195 6.73206C1.72184 6.80557 1.71593 6.88673 1.73633 6.9635C1.75671 7.04015 1.80178 7.10802 1.86426 7.15686C1.92698 7.20572 2.00448 7.23299 2.08398 7.23401H18.7305C18.8109 7.236 18.8896 7.21095 18.9541 7.16272C19.0187 7.11439 19.0652 7.04535 19.0859 6.96741C19.1065 6.88958 19.1003 6.80693 19.0684 6.73303C19.0363 6.65912 18.9801 6.5984 18.9092 6.56018L18.9043 6.55725L10.5742 1.76428L10.5703 1.76233C10.5193 1.73115 10.4602 1.71448 10.4004 1.71448Z" fill="#3A5C2B" stroke="#3A5C2B" stroke-width="0.4"/>
</svg>
