<svg width="22" height="20" viewBox="0 0 22 20" fill="none" xmlns="http://www.w3.org/2000/svg">
<path d="M11 5V9M13 19V16C13 15.4696 12.7893 14.9609 12.4142 14.5858C12.0391 14.2107 11.5304 14 11 14C10.4696 14 9.96086 14.2107 9.58579 14.5858C9.21071 14.9609 9 15.4696 9 16V19M13 7H9" stroke="#3A5C2B" stroke-width="2" stroke-linecap="round" stroke-linejoin="round"/>
<path d="M17 9H19C19.5304 9 20.0391 9.21071 20.4142 9.58579C20.7893 9.96086 21 10.4696 21 11V17C21 17.5304 20.7893 18.0391 20.4142 18.4142C20.0391 18.7893 19.5304 19 19 19H3C2.46957 19 1.96086 18.7893 1.58579 18.4142C1.21071 18.0391 1 17.5304 1 17V8C1 7.46957 1.21071 6.96086 1.58579 6.58579C1.96086 6.21071 2.46957 6 3 6H5" stroke="#3A5C2B" stroke-width="2" stroke-linecap="round" stroke-linejoin="round"/>
<path d="M17 19V3C17 2.46957 16.7893 1.96086 16.4142 1.58579C16.0391 1.21071 15.5304 1 15 1H7C6.46957 1 5.96086 1.21071 5.58579 1.58579C5.21071 1.96086 5 2.46957 5 3V19" stroke="#3A5C2B" stroke-width="2" stroke-linecap="round" stroke-linejoin="round"/>
</svg>
