<svg width="22" height="22" viewBox="0 0 22 22" fill="none" xmlns="http://www.w3.org/2000/svg">
<path d="M12.9612 5.50924L16.7778 1.69263C17.222 1.24912 17.824 1 18.4516 1C19.0793 1 19.6813 1.24912 20.1254 1.69263L20.3074 1.8746C20.7509 2.31873 21 2.92073 21 3.54839C21 4.17605 20.7509 4.77805 20.3074 5.22217L16.4908 9.03878L19.5669 15.5002C19.8201 16.032 19.9185 16.6243 19.8508 17.2094C19.7831 17.7944 19.5521 18.3486 19.1842 18.8085L17.9967 20.2941C17.9168 20.3942 17.8137 20.4732 17.6962 20.5242C17.5788 20.5752 17.4507 20.5967 17.323 20.5868C17.1954 20.5769 17.0721 20.5359 16.9639 20.4674C16.8558 20.3988 16.766 20.3049 16.7025 20.1937L12.569 12.9605L9.62776 15.9018L9.97444 18.1575C10.205 19.6509 9.04735 21 7.53514 21C7.24338 20.999 6.96132 20.8951 6.73865 20.7065C6.51597 20.518 6.36696 20.257 6.31784 19.9694L5.70605 16.2939L2.03063 15.6822C1.43609 15.5818 1 15.0672 1 14.4649C0.999941 14.1091 1.07682 13.7575 1.22536 13.4342C1.3739 13.1109 1.59059 12.8236 1.86058 12.5919C2.13057 12.3602 2.44747 12.1896 2.78955 12.0919C3.13163 11.9941 3.49081 11.9715 3.84246 12.0256L6.09822 12.3722L9.03951 9.43095L1.8063 5.29747C1.69501 5.23413 1.60092 5.1445 1.53225 5.03641C1.46358 4.92833 1.42242 4.80507 1.41236 4.67741C1.4023 4.54975 1.42365 4.42157 1.47455 4.30406C1.52545 4.18655 1.60434 4.0833 1.70434 4.00331L3.18988 2.81581C3.64997 2.4476 4.20445 2.21641 4.78983 2.14872C5.37522 2.08103 5.96783 2.17957 6.49981 2.43305L12.9612 5.50924Z" stroke="#3A5C2B" stroke-width="2" stroke-linecap="round" stroke-linejoin="round"/>
</svg>
