<svg width="23" height="22" viewBox="0 0 23 22" fill="none" xmlns="http://www.w3.org/2000/svg">
<path d="M13.1992 20.2009V17.2009C13.1992 16.6705 12.9885 16.1617 12.6134 15.7867C12.2384 15.4116 11.7297 15.2009 11.1992 15.2009C10.6688 15.2009 10.1601 15.4116 9.78501 15.7867C9.40993 16.1617 9.19922 16.6705 9.19922 17.2009V20.2009M17.1992 4.13388V20.2009M3.19922 5.20088L10.3052 1.41088C10.5828 1.27217 10.8889 1.19995 11.1992 1.19995C11.5095 1.19995 11.8156 1.27217 12.0932 1.41088L19.1992 5.20088" stroke="#3A5C2B" stroke-width="2.4" stroke-linecap="round" stroke-linejoin="round"/>
<path d="M5.19922 10.2008L1.67922 12.3478C1.53267 12.437 1.41154 12.5624 1.32748 12.712C1.24342 12.8615 1.19925 13.0302 1.19922 13.2018V18.2008C1.19922 18.7312 1.40993 19.2399 1.78501 19.615C2.16008 19.9901 2.66879 20.2008 3.19922 20.2008H19.1992C19.7297 20.2008 20.2384 19.9901 20.6134 19.615C20.9885 19.2399 21.1992 18.7312 21.1992 18.2008V13.2008C21.199 13.0294 21.1548 12.8609 21.0707 12.7115C20.9867 12.5622 20.8656 12.4369 20.7192 12.3478L17.1992 10.2008M5.19922 4.13379V20.2008" stroke="#3A5C2B" stroke-width="2.4" stroke-linecap="round" stroke-linejoin="round"/>
<path d="M11.1992 10.2009C12.3038 10.2009 13.1992 9.3055 13.1992 8.20093C13.1992 7.09636 12.3038 6.20093 11.1992 6.20093C10.0946 6.20093 9.19922 7.09636 9.19922 8.20093C9.19922 9.3055 10.0946 10.2009 11.1992 10.2009Z" stroke="#3A5C2B" stroke-width="2.4" stroke-linecap="round" stroke-linejoin="round"/>
</svg>
