<svg width="20" height="19" viewBox="0 0 20 19" fill="none" xmlns="http://www.w3.org/2000/svg">
<path d="M10.67 0.158449L19.17 4.90845C19.4195 5.03302 19.6294 5.22468 19.776 5.46192C19.9226 5.69915 20.0002 5.97256 20 6.25145V7.69145C20 8.38145 19.44 8.94145 18.75 8.94145H18V16.9414H19C19.2652 16.9414 19.5196 17.0468 19.7071 17.2343C19.8946 17.4219 20 17.6762 20 17.9414C20 18.2067 19.8946 18.461 19.7071 18.6486C19.5196 18.8361 19.2652 18.9414 19 18.9414H1C0.734784 18.9414 0.48043 18.8361 0.292893 18.6486C0.105357 18.461 0 18.2067 0 17.9414C0 17.6762 0.105357 17.4219 0.292893 17.2343C0.48043 17.0468 0.734784 16.9414 1 16.9414H2V8.94145H1.25C0.56 8.94145 0 8.38145 0 7.69145V6.25145C0 5.72945 0.27 5.24945 0.706 4.97745L9.329 0.158449C9.53733 0.0542491 9.76706 0 10 0C10.2329 0 10.4617 0.0542491 10.67 0.158449ZM16 8.94145H4V16.9414H7V10.9414H9V16.9414H11V10.9414H13V16.9414H16V8.94145ZM10 2.05945L2 6.55945V6.94145H18V6.55945L10 2.05945ZM10 3.94145C10.2652 3.94145 10.5196 4.04681 10.7071 4.23434C10.8946 4.42188 11 4.67623 11 4.94145C11 5.20667 10.8946 5.46102 10.7071 5.64856C10.5196 5.83609 10.2652 5.94145 10 5.94145C9.73478 5.94145 9.48043 5.83609 9.29289 5.64856C9.10536 5.46102 9 5.20667 9 4.94145C9 4.67623 9.10536 4.42188 9.29289 4.23434C9.48043 4.04681 9.73478 3.94145 10 3.94145Z" fill="#3A5C2B"/>
</svg>
