<svg width="30" height="23" viewBox="0 0 30 23" fill="none" xmlns="http://www.w3.org/2000/svg">
<path d="M4.28988 22.9994H25.7101C28.565 22.9994 30 21.5916 30 18.7748V4.23921C30 1.4224 28.565 0 25.7101 0H4.28988C1.43501 0 0 1.4224 0 4.23921V18.7748C0 21.5916 1.43443 22.9994 4.28988 22.9994ZM2.19973 4.36289C2.19973 2.94049 2.96503 2.20245 4.33068 2.20245H25.6827C27.035 2.20245 27.8003 2.94049 27.8003 4.36289V5.51109H2.19973V4.36289ZM4.33068 20.7993C2.96444 20.7993 2.19973 20.0741 2.19973 18.6523V8.61494H27.8003V18.6517C27.8003 20.0735 27.035 20.7987 25.6827 20.7987L4.33068 20.7993ZM5.9015 16.7509H9.24888C10.055 16.7509 10.5877 16.2176 10.5877 15.4382V12.9084C10.5877 12.1429 10.055 11.5957 9.24888 11.5957H5.9015C5.0954 11.5957 4.56266 12.1429 4.56266 12.9084V15.4382C4.56266 16.2176 5.0954 16.7509 5.9015 16.7509Z" fill="#3A5C2B"/>
</svg>
