<svg width="30" height="27" viewBox="0 0 30 27" fill="none" xmlns="http://www.w3.org/2000/svg">
<path d="M20.7143 9.94737H23.5714C24.1667 9.94737 24.6729 9.74037 25.09 9.32637C25.5071 8.91237 25.7152 8.40884 25.7143 7.81579V6.39474C25.7143 5.80263 25.5062 5.29958 25.09 4.88558C24.6738 4.47158 24.1676 4.2641 23.5714 4.26316H20C19.5952 4.26316 19.2562 4.39958 18.9829 4.67242C18.7095 4.94526 18.5724 5.28253 18.5714 5.68421V11.7237C18.5714 12.0316 18.6729 12.2864 18.8757 12.4882C19.0786 12.69 19.3343 12.7904 19.6429 12.7895C19.9514 12.7885 20.2076 12.6876 20.4114 12.4868C20.6152 12.2859 20.7162 12.0316 20.7143 11.7237V9.94737ZM20.7143 7.81579V6.39474H23.5714V7.81579H20.7143ZM15.7143 17.0526C14.9286 17.0526 14.2562 16.7746 13.6971 16.2185C13.1381 15.6624 12.8581 14.993 12.8571 14.2105V2.8421C12.8571 2.06053 13.1371 1.39168 13.6971 0.835579C14.2571 0.279474 14.9295 0.000947368 15.7143 0H27.1429C27.9286 0 28.6014 0.278526 29.1614 0.835579C29.7214 1.39263 30.0009 2.06147 30 2.8421V14.2105C30 14.9921 29.7205 15.6614 29.1614 16.2185C28.6024 16.7755 27.9295 17.0536 27.1429 17.0526H22.8571V25.5789C22.8571 25.9816 22.72 26.3193 22.4457 26.5922C22.1714 26.865 21.8324 27.0009 21.4286 27C21.0248 26.999 20.6857 26.8626 20.4114 26.5907C20.1371 26.3188 20 25.9816 20 25.5789V17.0526H15.7143ZM15.7143 14.2105H27.1429V2.8421H15.7143V14.2105ZM8.57143 27C8.16667 27 7.82762 26.8636 7.55429 26.5907C7.28095 26.3179 7.14381 25.9806 7.14286 25.5789V24.1579H1.42858C1.02381 24.1579 0.684767 24.0215 0.411434 23.7486C0.1381 23.4758 0.000957307 23.1385 4.9261e-06 22.7368C-0.000947455 22.3352 0.136196 21.9979 0.411434 21.725C0.686672 21.4522 1.02572 21.3158 1.42858 21.3158H8.57143V14.2105H1.42858C1.02381 14.2105 0.684767 14.0741 0.411434 13.8013C0.1381 13.5284 0.000957307 13.1912 4.9261e-06 12.7895C-0.000947455 12.3878 0.136196 12.0505 0.411434 11.7777C0.686672 11.5048 1.02572 11.3684 1.42858 11.3684H7.42857L5.92857 7.10526H1.42858C1.02381 7.10526 0.684767 6.96884 0.411434 6.696C0.1381 6.42316 0.000957307 6.08589 4.9261e-06 5.68421C-0.000947455 5.28253 0.136196 4.94526 0.411434 4.67242C0.686672 4.39958 1.02572 4.26316 1.42858 4.26316H6.42857C6.88096 4.26316 7.29191 4.39342 7.66143 4.65395C8.03095 4.91447 8.28667 5.25789 8.42857 5.68421L11.2857 13.7487C11.3333 13.8908 11.369 14.0447 11.3929 14.2105C11.4167 14.3763 11.4286 14.5421 11.4286 14.7079V25.5789C11.4286 25.9816 11.2914 26.3193 11.0171 26.5922C10.7429 26.865 10.4038 27.0009 10 27H8.57143ZM5 19.8947C5.59524 19.8947 6.10143 19.6877 6.51857 19.2737C6.93572 18.8597 7.14381 18.3562 7.14286 17.7632C7.14191 17.1701 6.93381 16.667 6.51857 16.254C6.10334 15.8409 5.59715 15.6335 5 15.6316C4.40286 15.6297 3.89715 15.8372 3.48286 16.254C3.06858 16.6708 2.86 17.1739 2.85715 17.7632C2.85429 18.3524 3.06286 18.8559 3.48286 19.2737C3.90286 19.6915 4.40858 19.8985 5 19.8947Z" fill="#3A5C2B"/>
</svg>
