<svg width="33" height="33" viewBox="0 0 33 33" fill="none" xmlns="http://www.w3.org/2000/svg">
<path d="M23.6431 15.0714C23.6431 19.0164 20.4453 22.2143 16.5003 22.2143C12.5553 22.2143 9.35742 19.0164 9.35742 15.0714C9.35742 11.1264 12.5553 7.92859 16.5003 7.92859C20.4453 7.92859 23.6431 11.1264 23.6431 15.0714Z" stroke="#3A5C2B" stroke-width="3" stroke-linecap="round" stroke-linejoin="round"/>
<path d="M19.3571 15.0714C19.3571 14.3137 19.0561 13.587 18.5203 13.0511C17.9845 12.5153 17.2578 12.2143 16.5 12.2143" stroke="#3A5C2B" stroke-width="3" stroke-linecap="round" stroke-linejoin="round"/>
<path d="M16.5 1.5C7.92857 1.5 1.5 9.22143 1.5 18.6429C1.5 25.6593 6.04714 31.5 11.6564 31.5C13.7207 31.5 15.64 30.73 17.2421 29.4071C19.0593 27.9071 21.4379 27.2386 23.6136 27.2386C27.9693 27.2386 31.5 22.8221 31.5 17.3743C31.5 9.35714 26.1429 1.5 16.5 1.5Z" stroke="#3A5C2B" stroke-width="3" stroke-linecap="round" stroke-linejoin="round"/>
</svg>
