<svg width="33" height="17" viewBox="0 0 33 17" fill="none" xmlns="http://www.w3.org/2000/svg">
<path d="M10.2828 1.5H6.46467C6.24767 1.5 6.03956 1.5862 5.88612 1.73964C5.73269 1.89308 5.64648 2.10119 5.64648 2.31818V14.3182C5.64648 14.4256 5.66765 14.532 5.70876 14.6313C5.74988 14.7306 5.81015 14.8207 5.88612 14.8967C5.9621 14.9727 6.0523 15.033 6.15156 15.0741C6.25083 15.1152 6.35722 15.1364 6.46467 15.1364H10.2828C10.3903 15.1364 10.4967 15.1152 10.596 15.0741C10.6952 15.033 10.7854 14.9727 10.8614 14.8967C10.9374 14.8207 10.9976 14.7306 11.0387 14.6313C11.0799 14.532 11.101 14.4256 11.101 14.3182V2.31818C11.101 2.10119 11.0148 1.89308 10.8614 1.73964C10.708 1.5862 10.4998 1.5 10.2828 1.5ZM26.6465 1.5H22.8283C22.6113 1.5 22.4032 1.5862 22.2498 1.73964C22.0963 1.89308 22.0101 2.10119 22.0101 2.31818V14.3182C22.0101 14.4256 22.0313 14.532 22.0724 14.6313C22.1135 14.7306 22.1738 14.8207 22.2498 14.8967C22.3257 14.9727 22.4159 15.033 22.5152 15.0741C22.6145 15.1152 22.7209 15.1364 22.8283 15.1364H26.6465C26.7539 15.1364 26.8603 15.1152 26.9596 15.0741C27.0589 15.033 27.1491 14.9727 27.225 14.8967C27.301 14.8207 27.3613 14.7306 27.4024 14.6313C27.4435 14.532 27.4647 14.4256 27.4647 14.3182V2.31818C27.4647 2.10119 27.3785 1.89308 27.225 1.73964C27.0716 1.5862 26.8635 1.5 26.6465 1.5Z" stroke="#3A5C2B" stroke-width="3" stroke-linecap="round" stroke-linejoin="round"/>
<path d="M11.0455 7.82718H21.9545M1.5 11.0999V4.55445C1.5 4.33745 1.5862 4.12935 1.73964 3.97591C1.89308 3.82247 2.10119 3.73627 2.31818 3.73627H4.77273C4.98972 3.73627 5.19783 3.82247 5.35127 3.97591C5.50471 4.12935 5.59091 4.33745 5.59091 4.55445V11.0999C5.59091 11.3169 5.50471 11.525 5.35127 11.6784C5.19783 11.8319 4.98972 11.9181 4.77273 11.9181H2.31818C2.10119 11.9181 1.89308 11.8319 1.73964 11.6784C1.5862 11.525 1.5 11.3169 1.5 11.0999ZM31.5 11.0999V4.55445C31.5 4.33745 31.4138 4.12935 31.2604 3.97591C31.1069 3.82247 30.8988 3.73627 30.6818 3.73627H28.2273C28.0103 3.73627 27.8022 3.82247 27.6487 3.97591C27.4953 4.12935 27.4091 4.33745 27.4091 4.55445V11.0999C27.4091 11.3169 27.4953 11.525 27.6487 11.6784C27.8022 11.8319 28.0103 11.9181 28.2273 11.9181H30.6818C30.8988 11.9181 31.1069 11.8319 31.2604 11.6784C31.4138 11.525 31.5 11.3169 31.5 11.0999Z" stroke="#3A5C2B" stroke-width="3" stroke-linecap="round" stroke-linejoin="round"/>
</svg>
