<svg width="30" height="21" viewBox="0 0 30 21" fill="none" xmlns="http://www.w3.org/2000/svg">
<path d="M0 21V12C0 11.325 0.1375 10.7125 0.4125 10.1625C0.6875 9.6125 1.05 9.125 1.5 8.7V4.5C1.5 3.25 1.9375 2.1875 2.8125 1.3125C3.6875 0.4375 4.75 0 6 0H12C12.575 0 13.1125 0.1065 13.6125 0.3195C14.1125 0.5325 14.575 0.826 15 1.2C15.425 0.825 15.8875 0.5315 16.3875 0.3195C16.8875 0.1075 17.425 0.001 18 0H24C25.25 0 26.3125 0.4375 27.1875 1.3125C28.0625 2.1875 28.5 3.25 28.5 4.5V8.7C28.95 9.125 29.3125 9.6125 29.5875 10.1625C29.8625 10.7125 30 11.325 30 12V21H27V18H3V21H0ZM16.5 7.5H25.5V4.5C25.5 4.075 25.356 3.719 25.068 3.432C24.78 3.145 24.424 3.001 24 3H18C17.575 3 17.219 3.144 16.932 3.432C16.645 3.72 16.501 4.076 16.5 4.5V7.5ZM4.5 7.5H13.5V4.5C13.5 4.075 13.356 3.719 13.068 3.432C12.78 3.145 12.424 3.001 12 3H6C5.575 3 5.219 3.144 4.932 3.432C4.645 3.72 4.501 4.076 4.5 4.5V7.5ZM3 15H27V12C27 11.575 26.856 11.219 26.568 10.932C26.28 10.645 25.924 10.501 25.5 10.5H4.5C4.075 10.5 3.719 10.644 3.432 10.932C3.145 11.22 3.001 11.576 3 12V15Z" fill="#3A5C2B"/>
</svg>
