<svg width="31" height="23" viewBox="0 0 31 23" fill="none" xmlns="http://www.w3.org/2000/svg">
<path d="M10.917 15.5144C11.072 15.4884 11.2306 15.4938 11.3838 15.5291C11.5369 15.5643 11.6816 15.6292 11.8096 15.7205C11.9375 15.8117 12.0466 15.9271 12.1299 16.0603C12.2132 16.1936 12.269 16.3427 12.2949 16.4978C12.3209 16.6527 12.3165 16.8115 12.2812 16.9646C12.2459 17.1177 12.181 17.2625 12.0898 17.3904C11.9986 17.5184 11.8823 17.6274 11.749 17.7107C11.6158 17.7939 11.4674 17.8498 11.3125 17.8757C8.19357 18.3994 5.2126 19.5396 2.54297 21.2273L2.0127 21.572C1.74889 21.7485 1.42555 21.8135 1.11426 21.7517C0.80303 21.6899 0.528942 21.5067 0.352539 21.2429C0.176171 20.9791 0.112058 20.6557 0.173828 20.3445C0.235652 20.0334 0.418053 19.7591 0.681641 19.5828C3.76607 17.516 7.25543 16.1292 10.917 15.5144ZM19.2178 15.5291C19.3709 15.4938 19.5296 15.4884 19.6846 15.5144C23.3461 16.1292 26.8355 17.516 29.9199 19.5828H29.9189C30.1827 19.7591 30.3659 20.0333 30.4277 20.3445C30.4895 20.6557 30.4254 20.9791 30.249 21.2429C30.0726 21.5067 29.7985 21.6899 29.4873 21.7517C29.215 21.8058 28.9332 21.7632 28.6904 21.6335L28.5889 21.572C25.7863 19.6941 22.6161 18.4343 19.2891 17.8757C19.1342 17.8498 18.9858 17.7939 18.8525 17.7107C18.7192 17.6274 18.603 17.5184 18.5117 17.3904C18.4205 17.2625 18.3556 17.1177 18.3203 16.9646C18.285 16.8115 18.2807 16.6527 18.3066 16.4978C18.3326 16.3427 18.3884 16.1936 18.4717 16.0603C18.555 15.9271 18.6641 15.8117 18.792 15.7205C18.92 15.6292 19.0646 15.5643 19.2178 15.5291Z" fill="#3A5C2B" stroke="#3A5C2B" stroke-width="0.3"/>
<path d="M15.3008 0.149597C17.4684 0.149665 19.5474 1.01142 21.0801 2.54413C22.6127 4.07687 23.4736 6.15588 23.4736 8.32343C23.4735 12.1976 21.5479 15.594 19.7383 17.9474H19.7373C18.7355 19.2438 17.6142 20.4434 16.3877 21.5295L16.3867 21.5305C16.3132 21.5941 16.2379 21.6558 16.1631 21.718L16.166 21.7219L16.0488 21.8156C15.8467 21.9771 15.5974 22.0693 15.3389 22.0773C15.1307 22.0838 14.9258 22.0351 14.7432 21.9387L14.7393 21.9445L14.6172 21.8625L14.6143 21.8605L14.6133 21.8596L14.6064 21.8557V21.8547L14.5869 21.842L14.5811 21.8381L14.5508 21.8156L14.4922 21.7746L14.4932 21.7726L14.2666 21.6027L14.2646 21.6008C13.9754 21.374 13.693 21.1385 13.418 20.8947C12.497 20.0797 11.6473 19.1871 10.8779 18.2277H10.877C9.03722 15.9287 7.12703 12.5321 7.12695 8.32343C7.12695 6.15576 7.98872 4.0769 9.52148 2.54413C11.0543 1.01136 13.1331 0.149597 15.3008 0.149597ZM15.3008 2.54315C13.7678 2.54315 12.2969 3.15154 11.2129 4.23553C10.1289 5.31953 9.52051 6.79043 9.52051 8.32343C9.52059 11.7889 11.0972 14.6713 12.7471 16.7326L13.0449 17.0939C13.7213 17.8951 14.4626 18.6389 15.2598 19.3205C15.3521 19.2348 15.4529 19.1422 15.5586 19.0392L15.8643 18.7385C16.5702 18.031 17.2302 17.279 17.8408 16.4875C19.518 14.3077 21.081 11.4256 21.0811 8.32343C21.0811 6.79043 20.4717 5.31953 19.3877 4.23553C18.3038 3.15175 16.8336 2.54322 15.3008 2.54315ZM15.3008 4.33612C16.3582 4.33619 17.3724 4.75641 18.1201 5.50409C18.8677 6.25181 19.2881 7.26608 19.2881 8.32343C19.288 9.3808 18.8678 10.3951 18.1201 11.1428C17.3724 11.8904 16.3582 12.3107 15.3008 12.3107C14.2434 12.3107 13.2292 11.8903 12.4814 11.1428C11.7338 10.3951 11.3135 9.3808 11.3135 8.32343C11.3135 7.26596 11.7337 6.25183 12.4814 5.50409C13.2292 4.75635 14.2433 4.33612 15.3008 4.33612ZM15.3008 6.7287C14.878 6.7287 14.4718 6.89653 14.1729 7.1955C13.8739 7.49446 13.7061 7.90063 13.7061 8.32343C13.7061 8.74602 13.8741 9.1515 14.1729 9.45038C14.4718 9.74934 14.878 9.91718 15.3008 9.91718C15.7235 9.91711 16.1288 9.74928 16.4277 9.45038C16.7266 9.15147 16.8945 8.74613 16.8945 8.32343C16.8945 7.90063 16.7267 7.49446 16.4277 7.1955C16.1289 6.89674 15.7234 6.72877 15.3008 6.7287Z" fill="#3A5C2B" stroke="#3A5C2B" stroke-width="0.3"/>
</svg>
