<svg width="33" height="29" viewBox="0 0 33 29" fill="none" xmlns="http://www.w3.org/2000/svg">
<path d="M19.4426 24.5259C19.4426 25.3137 19.1297 26.0692 18.5726 26.6262C18.0156 27.1833 17.2601 27.4962 16.4723 27.4962C15.6845 27.4962 14.929 27.1833 14.3719 26.6262C13.8149 26.0692 13.502 25.3137 13.502 24.5259C13.502 23.7381 13.8149 22.9826 14.3719 22.4255C14.929 21.8685 15.6845 21.5555 16.4723 21.5555C17.2601 21.5555 18.0156 21.8685 18.5726 22.4255C19.1297 22.9826 19.4426 23.7381 19.4426 24.5259Z" stroke="#3A5C2B" stroke-width="3" stroke-linecap="round" stroke-linejoin="round"/>
<path d="M1.79188 9.00199C1.27194 8.09135 1.4502 6.93263 2.27988 6.29088C5.86449 3.52257 10.6041 1.5 16.4987 1.5C22.3941 1.5 27.1337 3.52182 30.7183 6.29088C31.548 6.93263 31.7263 8.0921 31.2056 9.00199L30.4762 10.2788C29.778 11.5007 28.138 11.7703 26.9822 10.9681C24.1612 9.01091 20.5795 7.44217 16.4987 7.44217C12.4187 7.44217 8.83632 9.01091 6.01602 10.9681C4.85952 11.7703 3.21948 11.5007 2.52202 10.2788L1.79188 9.00199ZM7.893 17.1873C7.28764 16.2789 7.41614 15.0482 8.29558 14.4019C10.3843 12.8689 12.9134 11.8988 16.4987 11.8988C20.0841 11.8988 22.614 12.8689 24.7019 14.4019C25.5821 15.0482 25.7106 16.2789 25.1052 17.1873L24.3966 18.2495C23.7616 19.2032 22.4149 19.3562 21.427 18.7754C20.1227 18.0081 18.4121 17.3626 16.4987 17.3626C14.5854 17.3626 12.8755 18.0088 11.5712 18.7754C10.5833 19.3562 9.23667 19.2032 8.6016 18.2502L7.893 17.1873Z" stroke="#3A5C2B" stroke-width="3" stroke-linecap="round" stroke-linejoin="round"/>
</svg>
