<svg width="18" height="18" viewBox="0 0 18 18" fill="none" xmlns="http://www.w3.org/2000/svg">
<path d="M3.5 8.25C3.5 6.87 4.62 5.75 6 5.75H12C13.38 5.75 14.5 6.87 14.5 8.25V9.75C14.5 11.99 12.74 13.75 10.5 13.75H7.5C5.26 13.75 3.5 11.99 3.5 9.75V8.25Z" fill="#5F8F4E"/>
<path d="M5.75 5.75V4.25C5.75 3.56 6.31 3 7 3H11C11.69 3 12.25 3.56 12.25 4.25V5.75" fill="#5F8F4E"/>
<path d="M5 11.5C5.41421 11.5 5.75 11.8358 5.75 12.25C5.75 12.6642 5.41421 13 5 13C4.58579 13 4.25 12.6642 4.25 12.25C4.25 11.8358 4.58579 11.5 5 11.5Z" fill="#5F8F4E"/>
<path d="M13 11.5C13.4142 11.5 13.75 11.8358 13.75 12.25C13.75 12.6642 13.4142 13 13 13C12.5858 13 12.25 12.6642 12.25 12.25C12.25 11.8358 12.5858 11.5 13 11.5Z" fill="#5F8F4E"/>
</svg>
