<svg width="31" height="25" viewBox="0 0 31 25" fill="none" xmlns="http://www.w3.org/2000/svg">
<path d="M25.6631 0.199829C26.9733 0.199829 28.2296 0.72768 29.1553 1.66565C30.0807 2.60348 30.6005 3.8747 30.6006 5.19983V19.6002C30.6005 20.9254 30.0807 22.1966 29.1553 23.1344C28.2296 24.0724 26.9733 24.6002 25.6631 24.6002H5.1377C3.8275 24.6002 2.57114 24.0724 1.64551 23.1344C0.720058 22.1966 0.200246 20.9254 0.200195 19.6002V5.19983C0.200246 3.8747 0.720057 2.60348 1.64551 1.66565C2.57114 0.72768 3.8275 0.199829 5.1377 0.199829H25.6631ZM15.5107 12.903L15.4004 12.9752L15.29 12.903L2.29492 4.35999C2.22166 4.62747 2.17971 4.91448 2.17969 5.19983V19.6002C2.17974 20.3966 2.49191 21.1599 3.04688 21.7223C3.60179 22.2845 4.35413 22.6002 5.1377 22.6002H25.6631C26.4466 22.6002 27.199 22.2845 27.7539 21.7223C28.3089 21.1599 28.621 20.3966 28.6211 19.6002V5.19983C28.6211 4.91439 28.5782 4.62754 28.5049 4.35999L15.5107 12.903ZM5.1377 2.19983C4.49397 2.19983 3.92056 2.39131 3.4541 2.73401L15.4004 10.5602L27.3457 2.73401C26.8794 2.3916 26.3065 2.19983 25.6631 2.19983H5.1377Z" fill="#3A5C2B" stroke="#3A5C2B" stroke-width="0.4"/>
</svg>
