<svg width="31" height="29" viewBox="0 0 31 29" fill="none" xmlns="http://www.w3.org/2000/svg">
<path d="M4.08008 1.45789C6.04333 -0.46255 9.26541 -0.115819 10.9014 2.03503L12.8428 4.58386C14.1361 6.28245 14.0681 8.64101 12.6162 10.201L12.4717 10.3495L12.1484 10.6669C12.1264 10.7725 12.1254 10.8814 12.1484 10.9872L12.1514 10.9989H12.1504C12.2376 11.5544 12.7276 12.8245 14.9111 14.9608C16.8213 16.8296 18.0568 17.4328 18.7227 17.6132L18.9736 17.6669L18.9824 17.6688C19.0975 17.6916 19.2154 17.6888 19.3301 17.6659L19.916 17.0936C21.3292 15.7129 23.492 15.4582 25.2324 16.3885L28.1709 17.9628L28.4111 18.0995C30.8368 19.5825 31.4074 22.9543 29.3086 25.0087V25.0096L27.123 27.1464H27.1221C26.4098 27.8424 25.4433 28.4321 24.2568 28.5419C21.4257 28.8019 14.8767 28.4631 8.00781 21.745C1.60787 15.4834 0.365265 10.0053 0.207031 7.28015C0.125924 5.8527 0.811735 4.65538 1.66699 3.82019L4.08008 1.45789ZM8.7373 3.63855C8.02706 2.70547 6.71507 2.64157 5.98633 3.35437L3.57031 5.7157C3.09142 6.18418 2.88471 6.67898 2.91113 7.12878C3.03137 9.20596 3.99469 14.0578 9.91504 19.8495C16.1139 25.9122 21.822 26.0841 24.0059 25.8827H24.0068C24.4044 25.847 24.8161 25.6412 25.2158 25.2509L27.3994 23.1132L27.5361 22.9618C28.1628 22.17 27.9558 20.8825 26.8809 20.3085L23.9424 18.7362C23.2033 18.3425 22.3485 18.476 21.8232 18.9901L21.1426 19.6552V19.6571L21.1191 19.6796L20.9824 19.8134L20.9736 19.8046C20.9301 19.8386 20.8855 19.8714 20.8389 19.9012L20.8379 19.9003C20.7042 19.9872 20.5284 20.0832 20.3086 20.163C19.8606 20.3278 19.2763 20.4133 18.5645 20.3055C17.1711 20.0952 15.3664 19.168 13.0039 16.8573C10.6437 14.5473 9.69146 12.7816 9.47559 11.4091C9.3642 10.7067 9.45239 10.1295 9.62207 9.68738C9.7161 9.43731 9.85088 9.20354 10.0205 8.99597L10.0283 8.98621L10.0781 8.93347L10.0791 8.9325L10.1006 8.91003L10.1055 8.90417L10.1143 8.89539L10.1191 8.89148L10.1221 8.88757H10.123L10.5654 8.45496C11.1493 7.88187 11.2381 6.92499 10.6768 6.1864V6.18542L8.7373 3.63855Z" fill="#3A5C2B" stroke="#3A5C2B" stroke-width="0.4"/>
</svg>
