<svg width="556" height="36" viewBox="0 0 556 36" fill="none" xmlns="http://www.w3.org/2000/svg">
<path d="M17.5781 3.45801C17.7746 3.14926 18.2254 3.14926 18.4219 3.45801L22.415 9.73633C22.8915 10.4854 23.6355 11.0254 24.4951 11.2471L31.7002 13.1055C32.0541 13.1971 32.1934 13.6251 31.9609 13.9072L27.2236 19.6455C26.6585 20.33 26.3749 21.2039 26.4297 22.0898L26.8887 29.5166C26.9113 29.882 26.5465 30.1471 26.2061 30.0127L19.2852 27.2803C18.4595 26.9544 17.5405 26.9544 16.7148 27.2803L9.79395 30.0127C9.45346 30.1471 9.08872 29.882 9.11133 29.5166L9.57031 22.0898C9.62509 21.2039 9.34147 20.33 8.77637 19.6455L4.03906 13.9072C3.80659 13.6251 3.94587 13.1971 4.2998 13.1055L11.5049 11.2471C12.3645 11.0254 13.1085 10.4854 13.585 9.73633L17.5781 3.45801Z" stroke="white" stroke-width="3"/>
<path d="M93.0752 3.54004C93.2706 3.22401 93.7294 3.22401 93.9248 3.54004L97.7402 9.70898C98.2108 10.4699 98.9555 11.0226 99.8203 11.252L106.788 13.0996C107.137 13.1923 107.276 13.6135 107.05 13.8955L102.416 19.6689C101.872 20.3465 101.6 21.2022 101.652 22.0693L102.099 29.4854C102.119 29.8295 101.797 30.0835 101.476 30L101.411 29.9795L94.8164 27.3018C93.9722 26.9591 93.0278 26.9591 92.1836 27.3018L85.5889 29.9795C85.2481 30.1178 84.8793 29.8525 84.9014 29.4854L85.3477 22.0693C85.3997 21.2022 85.1277 20.3465 84.584 19.6689L79.9502 13.8955C79.7241 13.6135 79.8625 13.1923 80.2119 13.0996L87.1797 11.252C88.0445 11.0226 88.7892 10.4699 89.2598 9.70898L93.0752 3.54004Z" stroke="white" stroke-width="3"/>
<path d="M168.075 3.54004C168.271 3.22401 168.729 3.22401 168.925 3.54004L172.74 9.70898C173.211 10.4699 173.956 11.0226 174.82 11.252L181.788 13.0996C182.137 13.1923 182.276 13.6135 182.05 13.8955L177.416 19.6689C176.872 20.3465 176.6 21.2022 176.652 22.0693L177.099 29.4854C177.119 29.8295 176.797 30.0835 176.476 30L176.411 29.9795L169.816 27.3018C168.972 26.9591 168.028 26.9591 167.184 27.3018L160.589 29.9795C160.248 30.1178 159.879 29.8525 159.901 29.4854L160.348 22.0693C160.4 21.2022 160.128 20.3465 159.584 19.6689L154.95 13.8955C154.724 13.6135 154.863 13.1923 155.212 13.0996L162.18 11.252C163.044 11.0226 163.789 10.4699 164.26 9.70898L168.075 3.54004Z" stroke="white" stroke-width="3"/>
</svg>
