<svg width="20" height="19" viewBox="0 0 20 19" fill="none" xmlns="http://www.w3.org/2000/svg">
<path d="M6.32016 15.3944L9.9995 13.1869L13.6788 15.4235L12.7152 11.2408L15.9565 8.4524L11.6932 8.0748L9.9995 4.12454L8.30584 8.04576L4.04246 8.42335L7.28379 11.2408L6.32016 15.3944ZM9.9995 15.9172L5.15211 18.8218C4.93797 18.9574 4.71409 19.0155 4.48048 18.9961C4.24687 18.9767 4.04246 18.8993 3.86726 18.7637C3.69205 18.6282 3.55578 18.459 3.45844 18.256C3.3611 18.0531 3.34164 17.8254 3.40004 17.5729L4.68489 12.0832L0.392319 8.39431C0.197644 8.22003 0.0761673 8.02136 0.027888 7.79828C-0.0203912 7.57521 -0.00598538 7.35756 0.0711057 7.14533C0.148197 6.9331 0.265001 6.75882 0.42152 6.6225C0.578038 6.48618 0.79218 6.39904 1.06395 6.36108L6.72897 5.8673L8.91906 0.697105C9.0164 0.464737 9.16746 0.29046 9.37226 0.174276C9.57706 0.0580919 9.78614 0 9.9995 0C10.2129 0 10.4219 0.0580919 10.6267 0.174276C10.8315 0.29046 10.9826 0.464737 11.0799 0.697105L13.27 5.8673L18.9351 6.36108C19.2076 6.39981 19.4217 6.48695 19.5775 6.6225C19.7332 6.75805 19.85 6.93232 19.9279 7.14533C20.0058 7.35833 20.0206 7.57637 19.9723 7.79945C19.924 8.02252 19.8021 8.22081 19.6067 8.39431L15.3141 12.0832L16.599 17.5729C16.6574 17.8246 16.6379 18.0523 16.5406 18.256C16.4432 18.4597 16.307 18.629 16.1317 18.7637C15.9565 18.8985 15.7521 18.976 15.5185 18.9961C15.2849 19.0163 15.061 18.9582 14.8469 18.8218L9.9995 15.9172Z" fill="#3A5C2B"/>
</svg>
