<svg width="22" height="22" viewBox="0 0 22 22" fill="none" xmlns="http://www.w3.org/2000/svg">
<path d="M11 6.55615V21.0006M1 7.66726C1 7.37258 1.11706 7.08996 1.32544 6.88159C1.53381 6.67322 1.81643 6.55615 2.11111 6.55615H19.8889C20.1836 6.55615 20.4662 6.67322 20.6746 6.88159C20.8829 7.08996 21 7.37258 21 7.66726V9.88949C21 10.1842 20.8829 10.4668 20.6746 10.6752C20.4662 10.8835 20.1836 11.0006 19.8889 11.0006H2.11111C1.81643 11.0006 1.53381 10.8835 1.32544 10.6752C1.11706 10.4668 1 10.1842 1 9.88949V7.66726Z" stroke="#3A5C2B" stroke-width="2" stroke-linecap="round" stroke-linejoin="round"/>
<path d="M18.7782 11.0005V18.7783C18.7782 19.3676 18.5441 19.9329 18.1273 20.3496C17.7106 20.7664 17.1454 21.0005 16.556 21.0005H5.44488C4.85551 21.0005 4.29028 20.7664 3.87353 20.3496C3.45678 19.9329 3.22266 19.3676 3.22266 18.7783V11.0005M6.00043 6.55604C5.26372 6.55604 4.55718 6.26338 4.03625 5.74245C3.51531 5.22151 3.22266 4.51498 3.22266 3.77826C3.22266 3.04155 3.51531 2.33501 4.03625 1.81408C4.55718 1.29314 5.26372 1.00049 6.00043 1.00049C7.07231 0.981811 8.12268 1.50189 9.01458 2.49289C9.90649 3.48389 10.5985 4.89982 11.0004 6.55604C11.4023 4.89982 12.0944 3.48389 12.9863 2.49289C13.8782 1.50189 14.9286 0.981811 16.0004 1.00049C16.7371 1.00049 17.4437 1.29314 17.9646 1.81408C18.4856 2.33501 18.7782 3.04155 18.7782 3.77826C18.7782 4.51498 18.4856 5.22151 17.9646 5.74245C17.4437 6.26338 16.7371 6.55604 16.0004 6.55604" stroke="#3A5C2B" stroke-width="2" stroke-linecap="round" stroke-linejoin="round"/>
</svg>
