<svg width="107" height="68" viewBox="0 0 107 68" fill="none" xmlns="http://www.w3.org/2000/svg">
<path d="M16.5 31H58.5V0L16.5 19V31Z" fill="url(#paint0_linear_0_3)"/>
<path d="M62.5 31H66.5V2L62.5 0V31Z" fill="#5F8F4E"/>
<path d="M70.5 31H74.5V7L70.5 5V31Z" fill="#5F8F4E"/>
<path d="M78.5 31H82.5V13L78.5 11V31Z" fill="#5F8F4E"/>
<path d="M86.5 31H90.5V18L86.5 16V31Z" fill="#5F8F4E"/>
<path d="M0 61.268V43.6199C0 43.4433 0.0139804 43.2078 0.0432123 42.9134C0.0724441 42.6203 0.203352 42.0904 0.437207 41.325C0.671062 40.5608 0.991341 39.8837 1.40059 39.295C1.80983 38.7075 2.46691 38.1776 3.37183 37.7065C4.27675 37.2368 5.34307 37 6.56954 37H10.9505C12.177 37 13.2433 37.2278 14.1482 37.6835C15.0531 38.1404 15.7102 38.6908 16.1195 39.3385C16.5287 39.9861 16.849 40.6338 17.0828 41.2802C17.3167 41.9278 17.4476 42.4718 17.4768 42.9121L17.52 43.6187V61.2667C17.52 61.4434 17.5048 61.6789 17.4768 61.972C17.4476 62.2664 17.3154 62.7963 17.0828 63.5604C16.849 64.3258 16.5274 65.0017 16.1195 65.5904C15.7102 66.1792 15.0531 66.7091 14.1482 67.1789C13.2433 67.6499 12.177 67.8854 10.9505 67.8854H6.56954C5.34307 67.8854 4.27675 67.6576 3.37183 67.2019C2.46564 66.7462 1.80856 66.1946 1.40059 65.5469C0.991341 64.9005 0.669791 64.2529 0.437207 63.6052C0.203352 62.9588 0.0711732 62.4136 0.0432123 61.9733L0 61.268ZM6.57208 41.4146C5.92898 41.4146 5.42568 41.5989 5.06092 41.9662C4.69489 42.3349 4.49789 42.7099 4.46993 43.0913L4.38224 43.6212V61.2693C4.38224 61.3282 4.38859 61.4088 4.40384 61.5125C4.41782 61.6162 4.46231 61.7928 4.53475 62.0424C4.60719 62.292 4.71014 62.5134 4.84105 62.7041C4.97196 62.8961 5.19183 63.0728 5.49813 63.234C5.80443 63.3966 6.16284 63.4772 6.57208 63.4772H10.953C11.5949 63.4772 12.0994 63.2942 12.4642 62.9256C12.829 62.5569 13.026 62.1832 13.0552 61.8005L13.1429 61.2706V43.6225C13.1429 43.5636 13.1353 43.483 13.1213 43.3793C13.106 43.2769 13.0628 43.1003 12.9904 42.8494C12.9167 42.5998 12.815 42.3797 12.6841 42.1877C12.5532 41.997 12.3333 41.8203 12.027 41.6578C11.7207 41.4965 11.3623 41.4146 10.953 41.4146H6.57208Z" fill="black"/>
<path d="M21.2734 63.4746H23.4633C24.1051 63.4746 24.6097 63.2916 24.9744 62.9229C25.3392 62.5556 25.5362 62.1806 25.5654 61.7979L25.6531 61.268V37.0012H38.796V67.8853H34.4151V41.4132H30.0341V61.268C30.0341 61.4446 30.0188 61.6801 29.9909 61.9732C29.9616 62.2676 29.8295 62.7975 29.5969 63.5616C29.363 64.3271 29.0415 65.0029 28.6335 65.5917C28.2243 66.1804 27.5672 66.7103 26.6623 67.1801C25.7573 67.6511 24.691 67.8866 23.4646 67.8866H21.2747V63.4746H21.2734Z" fill="black"/>
<path d="M55.6904 67.8867V59.9893L50.6524 65.0196C50.477 65.2256 50.2216 65.4906 49.886 65.8131C49.5505 66.137 48.8629 66.5632 47.8271 67.0931C46.79 67.623 45.7605 67.8867 44.7387 67.8867H42.5488V37.0026H46.9298V62.4597L47.5869 61.9298L54.159 55.3111C54.3343 55.1345 54.633 54.7082 55.0575 54.0311C55.4807 53.3553 55.693 52.8254 55.693 52.4427V37H60.074V67.8841H55.693L55.6904 67.8867Z" fill="black"/>
<path d="M74.774 42.7815C74.8617 42.6638 75.0803 42.4282 75.4311 42.075L77.6222 39.8683C77.7976 39.6635 78.0531 39.3986 78.3886 39.0748C78.7242 38.7509 79.4105 38.3247 80.4476 37.7948C81.4834 37.2649 82.5141 37.0012 83.536 37.0012H85.7271V67.8853H81.3461V42.4282L80.689 42.9581L78.4992 45.1635C78.0023 45.6934 77.6083 46.2515 77.3159 46.8403C77.0821 47.2818 76.9652 47.6786 76.9652 48.0319V54.6506H72.5842V48.0319C72.5842 47.6786 72.4673 47.2818 72.2334 46.8403C71.8826 46.1644 71.4886 45.6051 71.0502 45.1635L68.8603 42.9581C68.6849 42.811 68.4663 42.6343 68.2032 42.4282V67.8853H63.8223V37.0012H66.0121C66.6539 37.0012 67.297 37.0972 67.9401 37.2879C68.582 37.4799 69.1374 37.7142 69.6051 37.9945C70.0715 38.2748 70.4884 38.5615 70.8532 38.8546C71.2179 39.149 71.4886 39.3845 71.664 39.5611L71.9271 39.8696C73.4167 41.3108 74.3661 42.2823 74.7753 42.7815H74.774Z" fill="black"/>
<path d="M89.4766 67.8866V37.0024H107V67.8866H102.619V41.4145H93.8575V67.8866H89.4766Z" fill="black"/>
<defs>
<linearGradient id="paint0_linear_0_3" x1="16.5" y1="15.5" x2="58.5" y2="15.5" gradientUnits="userSpaceOnUse">
<stop offset="0.23" stop-color="#5F8F4E"/>
<stop offset="1" stop-color="#C4F694"/>
</linearGradient>
</defs>
</svg>
