<svg width="25" height="24" viewBox="0 0 25 24" fill="none" xmlns="http://www.w3.org/2000/svg">
<path d="M12.4994 20.106L6.44014 23.775C6.17246 23.9462 5.89261 24.0195 5.6006 23.9951C5.30859 23.9706 5.05308 23.8728 4.83407 23.7016C4.61506 23.5304 4.44472 23.3166 4.32305 23.0602C4.20138 22.8039 4.17704 22.5163 4.25005 22.1973L5.85611 15.2629L0.490398 10.6033C0.247055 10.3832 0.0952091 10.1322 0.0348601 9.85046C-0.025489 9.56868 -0.00748172 9.29376 0.0888821 9.02568C0.185246 8.7576 0.331252 8.53746 0.5269 8.36526C0.722547 8.19306 0.990225 8.083 1.32993 8.03505L8.41121 7.41133L11.1488 0.880554C11.2705 0.587036 11.4593 0.366897 11.7153 0.220138C11.9713 0.0733793 12.2327 0 12.4994 0C12.7661 0 13.0274 0.0733793 13.2834 0.220138C13.5394 0.366897 13.7283 0.587036 13.8499 0.880554L16.5875 7.41133L23.6688 8.03505C24.0095 8.08397 24.2772 8.19404 24.4719 8.36526C24.6665 8.53648 24.8125 8.75662 24.9099 9.02568C25.0072 9.29473 25.0257 9.57015 24.9654 9.85193C24.905 10.1337 24.7527 10.3842 24.5084 10.6033L19.1426 15.2629L20.7487 22.1973C20.8217 22.5153 20.7974 22.8029 20.6757 23.0602C20.554 23.3176 20.3837 23.5313 20.1647 23.7016C19.9457 23.8718 19.6902 23.9697 19.3982 23.9951C19.1061 24.0205 18.8263 23.9471 18.5586 23.775L12.4994 20.106Z" fill="#E2E2E2"/>
</svg>
