<svg width="18" height="33" viewBox="0 0 18 33" fill="none" xmlns="http://www.w3.org/2000/svg">
<path d="M1.19922 17.7C1.19922 15.7109 1.9894 13.8032 3.39592 12.3967C4.80244 10.9902 6.7101 10.2 8.69922 10.2C10.6883 10.2 12.596 10.9902 14.0025 12.3967C15.409 13.8032 16.1992 15.7109 16.1992 17.7V25.2C16.1992 28.029 16.1992 29.442 15.3202 30.321C14.4412 31.2 13.0282 31.2 10.1992 31.2H7.19922C4.37022 31.2 2.95722 31.2 2.07822 30.321C1.19922 29.442 1.19922 28.029 1.19922 25.2V17.7Z" stroke="#3A5C2B" stroke-width="2.4" stroke-linecap="round" stroke-linejoin="round"/>
<path d="M5.69922 10.2V8.70001C5.69922 7.28551 5.69922 6.57901 6.13872 6.13951C6.57822 5.70001 7.28472 5.70001 8.69922 5.70001M8.69922 5.70001C10.1137 5.70001 10.8202 5.70001 11.2597 6.13951C11.6992 6.57901 11.6992 7.28551 11.6992 8.70001V10.2M8.69922 5.70001V1.20001M8.69922 1.20001H5.69922M8.69922 1.20001H12.8167C13.9525 1.2003 15.0461 1.63004 15.8782 2.40301L16.1992 2.70001M1.19922 17.7H16.1992" stroke="#3A5C2B" stroke-width="2.4" stroke-linecap="round" stroke-linejoin="round"/>
</svg>
