<svg width="30" height="30" viewBox="0 0 30 30" fill="none" xmlns="http://www.w3.org/2000/svg">
<path d="M13.5 26.2125L6 21.9C5.525 21.625 5.1565 21.2625 4.8945 20.8125C4.6325 20.3625 4.501 19.8625 4.5 19.3125V10.6875C4.5 10.1375 4.6315 9.63749 4.8945 9.18749C5.1575 8.73749 5.526 8.375 6 8.09999L13.5 3.7875C13.975 3.5125 14.475 3.375 15 3.375C15.525 3.375 16.025 3.5125 16.5 3.7875L24 8.09999C24.475 8.375 24.844 8.73749 25.107 9.18749C25.37 9.63749 25.501 10.1375 25.5 10.6875V19.3125C25.5 19.8625 25.369 20.3625 25.107 20.8125C24.845 21.2625 24.476 21.625 24 21.9L16.5 26.2125C16.025 26.4875 15.525 26.625 15 26.625C14.475 26.625 13.975 26.4875 13.5 26.2125ZM13.5 22.7625V15.8625L7.5 12.375V19.3125L13.5 22.7625ZM16.5 22.7625L22.5 19.3125V12.375L16.5 15.8625V22.7625ZM1.5 8.99999C1.075 8.99999 0.719 8.85599 0.432 8.56799C0.145 8.27999 0.000999999 7.924 0 7.5V3C0 2.175 0.294 1.469 0.882 0.882C1.47 0.295 2.176 0.000999999 3 0H7.5C7.92499 0 8.28149 0.144 8.56949 0.432C8.85749 0.72 9.00099 1.076 8.99999 1.5C8.99899 1.924 8.85499 2.2805 8.56799 2.5695C8.28099 2.8585 7.92499 3.002 7.5 3H3V7.5C3 7.92499 2.856 8.28149 2.568 8.56949C2.28 8.85749 1.924 9.00099 1.5 8.99999ZM3 30C2.175 30 1.469 29.7065 0.882 29.1195C0.295 28.5325 0.000999999 27.826 0 27V22.5C0 22.075 0.144 21.719 0.432 21.432C0.72 21.145 1.076 21.001 1.5 21C1.924 20.999 2.2805 21.143 2.5695 21.432C2.8585 21.721 3.002 22.077 3 22.5V27H7.5C7.92499 27 8.28149 27.144 8.56949 27.432C8.85749 27.72 9.00099 28.076 8.99999 28.5C8.99899 28.924 8.85499 29.2805 8.56799 29.5695C8.28099 29.8585 7.92499 30.002 7.5 30H3ZM27 30H22.5C22.075 30 21.719 29.856 21.432 29.568C21.145 29.28 21.001 28.924 21 28.5C20.999 28.076 21.143 27.72 21.432 27.432C21.721 27.144 22.077 27 22.5 27H27V22.5C27 22.075 27.144 21.719 27.432 21.432C27.72 21.145 28.076 21.001 28.5 21C28.924 20.999 29.2805 21.143 29.5695 21.432C29.8585 21.721 30.002 22.077 30 22.5V27C30 27.825 29.7065 28.5315 29.1195 29.1195C28.5325 29.7075 27.826 30.001 27 30ZM27 7.5V3H22.5C22.075 3 21.719 2.856 21.432 2.568C21.145 2.28 21.001 1.924 21 1.5C20.999 1.076 21.143 0.72 21.432 0.432C21.721 0.144 22.077 0 22.5 0H27C27.825 0 28.5315 0.294 29.1195 0.882C29.7075 1.47 30.001 2.176 30 3V7.5C30 7.92499 29.856 8.28149 29.568 8.56949C29.28 8.85749 28.924 9.00099 28.5 8.99999C28.076 8.99899 27.72 8.85499 27.432 8.56799C27.144 8.28099 27 7.92499 27 7.5ZM15 13.275L20.925 9.78749L15 6.375L9.07499 9.78749L15 13.275Z" fill="#3A5C2B"/>
</svg>
