<svg width="31" height="28" viewBox="0 0 31 28" fill="none" xmlns="http://www.w3.org/2000/svg">
<path d="M27.4004 0.199799C28.2788 0.199799 29.036 0.51523 29.6611 1.14023C30.2863 1.76535 30.6016 2.52242 30.6006 3.39999V21.4C30.6006 22.2784 30.2853 23.0355 29.6611 23.6607C29.0369 24.286 28.2798 24.6012 27.4004 24.6002H21.6006V27.6002H9.2002V24.6002H3.40039C2.52198 24.6002 1.76487 24.285 1.14062 23.6607C0.516562 23.0365 0.20126 22.2791 0.200195 21.4V3.39999C0.200195 2.52153 0.515424 1.76442 1.14062 1.14023C1.76571 0.516203 2.523 0.200863 3.40039 0.199799H27.4004ZM3.60059 21.1998H27.2002V3.60019H3.60059V21.1998Z" fill="#3A5C2B" stroke="#3A5C2B" stroke-width="0.4"/>
</svg>
