<svg width="31" height="19" viewBox="0 0 31 19" fill="none" xmlns="http://www.w3.org/2000/svg">
<path d="M28.6992 0.100403C29.1495 0.100404 29.5322 0.253698 29.8398 0.56134C30.1473 0.868903 30.2998 1.25084 30.2988 1.70001C30.2978 2.14912 30.1443 2.53115 29.8379 2.83966C29.5312 3.14848 29.1495 3.30163 28.6992 3.29962C28.2999 3.29774 27.9694 3.43202 27.7021 3.70197C27.4344 3.97255 27.2998 4.30337 27.2988 4.70001V10.7C27.2988 11.9762 26.851 13.0639 25.957 13.9578C25.0864 14.8284 24.0321 15.2739 22.7988 15.2967V16.7C22.7988 17.1502 22.6455 17.533 22.3379 17.8406C22.0303 18.1481 21.6484 18.3006 21.1992 18.2996H1.69922C1.24904 18.2996 0.867215 18.1464 0.560547 17.8387C0.254057 17.5311 0.100669 17.1491 0.0996094 16.7V13.7C0.0996094 12.0233 0.697022 10.585 1.89062 9.39142C3.08423 8.19782 4.52249 7.6004 6.19922 7.6004H19.5996V6.20001C19.5996 5.80025 19.4645 5.47025 19.1963 5.20294C18.9279 4.93557 18.5979 4.80062 18.1992 4.79962H12.1992C12.0144 4.79962 11.8353 4.84072 11.6611 4.92267C11.4828 5.00662 11.3364 5.1067 11.2197 5.2215C11.0833 5.3558 10.9152 5.46253 10.7188 5.54279C10.5209 5.62358 10.3142 5.66288 10.0996 5.66193H10.0986C9.64865 5.66179 9.26652 5.50861 8.95996 5.20099C8.6537 4.89353 8.50009 4.51232 8.49902 4.06427C8.49902 3.85142 8.53943 3.64485 8.61914 3.44611C8.69844 3.24846 8.80487 3.07982 8.94043 2.94318H8.94141C9.37526 2.50939 9.8677 2.17721 10.418 1.94708C10.9689 1.71669 11.563 1.60142 12.1992 1.6004H18.1992C19.4754 1.6004 20.5631 2.04823 21.457 2.9422C22.351 3.83617 22.7988 4.92379 22.7988 6.20001V12.0955C23.1543 12.0748 23.4526 11.9438 23.6982 11.699C23.9664 11.4318 24.1005 11.1008 24.0996 10.7V4.70001C24.0996 3.42379 24.5474 2.33617 25.4414 1.4422C26.3354 0.548235 27.423 0.100403 28.6992 0.100403ZM6.19922 10.7996C5.40098 10.7996 4.72073 11.0838 4.15234 11.6531C3.58393 12.2226 3.29982 12.9028 3.29883 13.7V15.1004H19.5996V10.7996H6.19922Z" fill="#3A5C2B" stroke="#3A5C2B" stroke-width="0.2"/>
</svg>
