<svg width="26" height="33" viewBox="0 0 26 33" fill="none" xmlns="http://www.w3.org/2000/svg">
<path d="M1.34961 13.0167H24.3496M7.92104 18.0167V23.0167M7.92104 6.35001V8.01667M1.34961 4.68334C1.34961 3.79928 1.69578 2.95144 2.31197 2.32632C2.92816 1.7012 3.7639 1.35001 4.63532 1.35001H21.0639C21.9353 1.35001 22.7711 1.7012 23.3872 2.32632C24.0034 2.95144 24.3496 3.79928 24.3496 4.68334V28.0167C24.3496 28.9007 24.0034 29.7486 23.3872 30.3737C22.7711 30.9988 21.9353 31.35 21.0639 31.35H4.63532C3.7639 31.35 2.92816 30.9988 2.31197 30.3737C1.69578 29.7486 1.34961 28.9007 1.34961 28.0167V4.68334Z" stroke="#3A5C2B" stroke-width="2.7" stroke-linecap="round" stroke-linejoin="round"/>
</svg>
