<svg width="33" height="29" viewBox="0 0 33 29" fill="none" xmlns="http://www.w3.org/2000/svg">
<path d="M5.5 14.5H1.5M19.5 14.5H13.5M31.5 14.5H27.5M13.5 2.83333V26.1667C13.5 26.1667 13.5 27.5 12.1667 27.5H6.83333C6.83333 27.5 5.5 27.5 5.5 26.1667V2.83333C5.5 2.83333 5.5 1.5 6.83333 1.5H12.1667C12.1667 1.5 13.5 1.5 13.5 2.83333ZM27.5 6.83333V22.1667C27.5 22.1667 27.5 23.5 26.1667 23.5H20.8333C20.8333 23.5 19.5 23.5 19.5 22.1667V6.83333C19.5 6.83333 19.5 5.5 20.8333 5.5H26.1667C26.1667 5.5 27.5 5.5 27.5 6.83333Z" stroke="#3A5C2B" stroke-width="3" stroke-linecap="round" stroke-linejoin="round"/>
</svg>
