<svg width="33" height="33" viewBox="0 0 33 33" fill="none" xmlns="http://www.w3.org/2000/svg">
<path d="M8.16667 18.1667H24.8333C26.6014 18.1667 28.2971 18.869 29.5474 20.1193C30.7976 21.3695 31.5 23.0652 31.5 24.8333M31.5 24.8333C31.5 26.6014 30.7976 28.2971 29.5474 29.5474C28.2971 30.7976 26.6014 31.5 24.8333 31.5H8.16667C6.39856 31.5 4.70286 30.7976 3.45262 29.5474C2.20238 28.2971 1.5 26.6014 1.5 24.8333V8.16667C1.5 6.39856 2.20238 4.70286 3.45262 3.45262C4.70286 2.20238 6.39856 1.5 8.16667 1.5H24.8333C26.6014 1.5 28.2971 2.20238 29.5474 3.45262C30.7976 4.70286 31.5 6.39856 31.5 8.16667V24.8333Z" stroke="#3A5C2B" stroke-width="3" stroke-linecap="round" stroke-linejoin="round"/>
<path d="M24.8333 24.8334H8.16667C6.39856 24.8334 4.70286 24.131 3.45262 22.8807C2.20238 21.6305 1.5 19.9348 1.5 18.1667" stroke="#3A5C2B" stroke-width="3" stroke-linecap="round" stroke-linejoin="round"/>
</svg>
