<svg width="31" height="30" viewBox="0 0 31 30" fill="none" xmlns="http://www.w3.org/2000/svg">
<path d="M6.78516 16.9963C7.2495 16.9965 7.69508 17.1807 8.02344 17.509C8.35191 17.8375 8.53613 18.2838 8.53613 18.7483C8.53601 19.2127 8.3518 19.6582 8.02344 19.9866C7.69507 20.3149 7.24952 20.4991 6.78516 20.4993C6.32063 20.4993 5.87437 20.315 5.5459 19.9866C5.21756 19.6582 5.03332 19.2126 5.0332 18.7483C5.0332 18.2838 5.21743 17.8375 5.5459 17.509C5.87437 17.1806 6.32063 16.9963 6.78516 16.9963ZM23.2959 16.9963C23.7603 16.9964 24.2058 17.1807 24.5342 17.509C24.8627 17.8375 25.0469 18.2838 25.0469 18.7483C25.0468 19.2127 24.8625 19.6582 24.5342 19.9866C24.2058 20.3149 23.7603 20.4992 23.2959 20.4993C22.8894 20.4993 22.4972 20.3582 22.1855 20.1028L22.0576 19.9866L21.9404 19.8577C21.6853 19.5462 21.5441 19.1544 21.5439 18.7483C21.5439 18.2838 21.7291 17.8375 22.0576 17.509C22.3861 17.1808 22.8315 16.9963 23.2959 16.9963Z" fill="#3A5C2B" stroke="#3A5C2B"/>
<path d="M2.53223 23H27.5479V14.4951H2.53223V23ZM8.19531 5.48926C7.78157 5.49159 7.37865 5.62231 7.04199 5.86328C6.70095 6.10744 6.44477 6.45223 6.31055 6.84961V6.85156L4.64453 11.834L4.42383 12.4932H25.6709L25.4512 11.834L23.7852 6.85156L23.7842 6.84961C23.6499 6.4522 23.3938 6.10743 23.0527 5.86328C22.712 5.61943 22.3037 5.48849 21.8848 5.48926H8.19531ZM2.00098 24.793L1.75098 24.6484C1.01046 24.2217 0.500004 23.4209 0.5 22.5V14.9951C0.5 13.9734 1.13716 13.0698 2.03809 12.6943L2.24805 12.6074L2.32031 12.3916L4.37695 6.2373C4.64322 5.4398 5.15341 4.74585 5.83594 4.25488C6.51853 3.7639 7.33885 3.50073 8.17969 3.50195H12.5234V1.50098C12.5235 0.95158 12.975 0.5 13.5244 0.5H16.5264C17.0756 0.500196 17.5273 0.9517 17.5273 1.50098V3.50195H21.8711C22.7121 3.49869 23.5331 3.76186 24.2158 4.25293C24.8984 4.74399 25.4085 5.4381 25.6729 6.23633V6.2373L27.7295 12.3916L28.0635 12.2793L27.9814 12.6943C28.8839 13.0704 29.5195 13.9597 29.5195 14.9951V22.5C29.5164 22.9356 29.3996 23.3627 29.1807 23.7393C28.9612 24.1167 28.6467 24.4301 28.2686 24.6484L28.0186 24.793V28.5039C28.0186 29.0533 27.567 29.5049 27.0176 29.5049H25.5166C24.9674 29.5047 24.5156 29.0532 24.5156 28.5039V25.002H5.50391V28.5039C5.50391 29.0533 5.05234 29.5049 4.50293 29.5049H3.00195C2.45257 29.5049 2.00098 29.0533 2.00098 28.5039V24.793Z" fill="#3A5C2B" stroke="#3A5C2B"/>
</svg>
