<svg width="20" height="20" viewBox="0 0 20 20" fill="none" xmlns="http://www.w3.org/2000/svg">
<path fill-rule="evenodd" clip-rule="evenodd" d="M13.5691 6.02711C13.7041 6.10205 13.8231 6.20286 13.9192 6.32379C14.0153 6.44472 14.0866 6.58339 14.129 6.73189C14.1715 6.88039 14.1843 7.0358 14.1667 7.18924C14.1491 7.34269 14.1014 7.49116 14.0264 7.62618L10.7601 13.5051C10.6851 13.6401 10.5842 13.7589 10.4632 13.8549C10.3422 13.9508 10.2035 14.022 10.0551 14.0644C9.75517 14.15 9.43359 14.1129 9.16104 13.9613C9.02609 13.8863 8.90724 13.7854 8.81128 13.6644C8.71532 13.5434 8.64412 13.4048 8.60176 13.2563C8.5162 12.9564 8.55328 12.6348 8.70483 12.3623L11.97 6.48332C12.045 6.34836 12.1459 6.22951 12.2669 6.13354C12.3879 6.03758 12.5266 5.96638 12.675 5.92402C12.8235 5.88166 12.9789 5.86896 13.1323 5.88665C13.2857 5.90434 13.4341 5.95207 13.5691 6.02711Z" fill="#5F8F4E"/>
<path fill-rule="evenodd" clip-rule="evenodd" d="M5.55017 9.58646C5.74499 9.34319 6.02843 9.18721 6.3382 9.15282C6.64796 9.11842 6.95871 9.20842 7.20215 9.40304L10.4685 12.0156C10.5891 12.1121 10.6895 12.2315 10.764 12.3668C10.8384 12.5021 10.8855 12.6507 10.9026 12.8042C10.9196 12.9577 10.9062 13.1131 10.8632 13.2614C10.8202 13.4098 10.7484 13.5482 10.6519 13.6688C10.5554 13.7894 10.4361 13.8898 10.3008 13.9643C10.1655 14.0388 10.0168 14.0859 9.86332 14.1029C9.70981 14.1199 9.55445 14.1065 9.40611 14.0635C9.25777 14.0205 9.11935 13.9487 8.99876 13.8522L5.73242 11.2396C5.61179 11.1431 5.51135 11.0238 5.43684 10.8885C5.36234 10.7532 5.31522 10.6046 5.29819 10.451C5.28115 10.2975 5.29454 10.1421 5.33757 9.9938C5.38061 9.84545 5.45363 9.70704 5.55017 9.58646Z" fill="#5F8F4E"/>
<path fill-rule="evenodd" clip-rule="evenodd" d="M10.547 2.57755C10.4017 2.43323 10.2051 2.35224 10.0003 2.35224C9.79545 2.35224 9.59892 2.43323 9.45355 2.57755C8.38711 3.64281 6.67987 4.2989 5.17839 4.22365C5.07007 4.21721 4.96162 4.2339 4.86026 4.27262C4.75889 4.31134 4.66693 4.37121 4.5905 4.44823C4.51656 4.52158 4.45839 4.60928 4.41957 4.70592C4.38075 4.80257 4.36209 4.90613 4.36475 5.01025C4.38121 5.85682 4.16839 6.70221 3.88855 7.3971C3.60872 8.09317 3.17603 8.8492 2.57755 9.44885C2.43323 9.59422 2.35224 9.79075 2.35224 9.99559C2.35224 10.2004 2.43323 10.397 2.57755 10.5423C3.62753 11.5935 4.33418 13.2478 4.36475 14.7352C4.36791 14.9346 4.44893 15.1249 4.5905 15.2655C4.72547 15.4018 4.90679 15.4824 5.09844 15.4912C5.92737 15.5324 6.75159 15.7769 7.44178 16.0826C8.13314 16.3895 8.86683 16.8363 9.45238 17.423C9.59774 17.5674 9.79428 17.6483 9.99912 17.6483C10.204 17.6483 10.4005 17.5674 10.5459 17.423C11.1326 16.8363 11.8663 16.3895 12.5565 16.0826C13.2478 15.7769 14.0732 15.5324 14.8998 15.4912C15.0914 15.4824 15.2728 15.4018 15.4077 15.2655C15.5497 15.1251 15.6312 14.9348 15.6347 14.7352C15.6652 13.2478 16.3719 11.5935 17.4219 10.5423C17.5662 10.397 17.6472 10.2004 17.6472 9.99559C17.6472 9.79075 17.5662 9.59422 17.4219 9.44885C16.8222 8.8492 16.3907 8.09317 16.1109 7.3971C15.831 6.70221 15.617 5.85682 15.6347 5.01025C15.6372 4.90605 15.6183 4.80244 15.5793 4.70578C15.5403 4.60913 15.4819 4.52148 15.4077 4.44823C15.3315 4.37115 15.2398 4.31115 15.1387 4.27223C15.0375 4.23331 14.9292 4.21635 14.821 4.22248C13.3184 4.2989 11.6111 3.64281 10.547 2.57755ZM2.01435 5.05611C2.03199 5.94853 1.54639 7.15489 0.914989 7.78511C0.329101 8.37156 0 9.16662 0 9.99559C0 10.8246 0.329101 11.6196 0.914989 12.2061C1.53816 12.8269 1.99671 13.9039 2.01435 14.7834C2.03081 15.5618 2.33534 16.3354 2.92911 16.928C3.47693 17.477 4.20977 17.8019 4.98439 17.8393C5.91443 17.8863 7.13255 18.4272 7.79099 19.0856C8.37739 19.6711 9.1722 20 10.0009 20C10.8296 20 11.6244 19.6711 12.2108 19.0856C12.8692 18.4272 14.0873 17.8863 15.0174 17.8393C15.792 17.8019 16.5248 17.477 17.0727 16.928C17.6432 16.3583 17.9707 15.5896 17.9862 14.7834C18.0051 13.9039 18.4636 12.8269 19.0856 12.2049C19.6711 11.6185 20 10.8237 20 9.995C20 9.16632 19.6711 8.37151 19.0856 7.78511C18.4554 7.15489 17.9686 5.94853 17.9874 5.05729C17.9963 4.63649 17.9198 4.21826 17.7626 3.82784C17.6053 3.43742 17.3706 3.08289 17.0727 2.78567C16.7638 2.47601 16.3932 2.23484 15.985 2.07784C15.5769 1.92085 15.1402 1.85154 14.7034 1.87443C13.8639 1.91676 12.8045 1.50994 12.2108 0.914989C11.6243 0.329101 10.8293 0 10.0003 0C9.17133 0 8.37627 0.329101 7.78981 0.914989C7.19722 1.50876 6.13666 1.91676 5.29715 1.87443C4.8606 1.85171 4.42415 1.9211 4.01617 2.07809C3.6082 2.23508 3.23782 2.47616 2.92911 2.78567C2.63126 3.08276 2.39665 3.43709 2.23944 3.8273C2.08222 4.21751 2.00565 4.63551 2.01435 5.05611Z" fill="#5F8F4E"/>
</svg>
