<svg width="33" height="33" viewBox="0 0 33 33" fill="none" xmlns="http://www.w3.org/2000/svg">
<path d="M19.0492 25.2H13.3492C13.1105 25.2 12.8816 25.1052 12.7128 24.9364C12.544 24.7676 12.4492 24.5387 12.4492 24.3V20.85C12.4492 20.6113 12.3544 20.3824 12.1856 20.2136C12.0168 20.0448 11.7879 19.95 11.5492 19.95H8.09922C7.86052 19.95 7.63161 19.8552 7.46282 19.6864C7.29404 19.5176 7.19922 19.2887 7.19922 19.05V13.35C7.19922 13.1113 7.29404 12.8824 7.46282 12.7136C7.63161 12.5448 7.86052 12.45 8.09922 12.45H11.5492C11.7879 12.45 12.0168 12.3552 12.1856 12.1864C12.3544 12.0176 12.4492 11.7887 12.4492 11.55V8.1C12.4492 7.8613 12.544 7.63238 12.7128 7.4636C12.8816 7.29482 13.1105 7.2 13.3492 7.2H19.0492C19.2879 7.2 19.5168 7.29482 19.6856 7.4636C19.8544 7.63238 19.9492 7.8613 19.9492 8.1V11.55C19.9492 11.7887 20.044 12.0176 20.2128 12.1864C20.3816 12.3552 20.6105 12.45 20.8492 12.45H24.2992C24.5379 12.45 24.7668 12.5448 24.9356 12.7136C25.1044 12.8824 25.1992 13.1113 25.1992 13.35V19.05C25.1992 19.2887 25.1044 19.5176 24.9356 19.6864C24.7668 19.8552 24.5379 19.95 24.2992 19.95H20.8492C20.6105 19.95 20.3816 20.0448 20.2128 20.2136C20.044 20.3824 19.9492 20.6113 19.9492 20.85V24.3C19.9492 24.5387 19.8544 24.7676 19.6856 24.9364C19.5168 25.1052 19.2879 25.2 19.0492 25.2Z" stroke="#3A5C2B" stroke-width="2.4"/>
<path d="M16.1992 31.2C24.4837 31.2 31.1992 24.4845 31.1992 16.2C31.1992 7.9155 24.4837 1.2 16.1992 1.2C7.91472 1.2 1.19922 7.9155 1.19922 16.2C1.19922 24.4845 7.91472 31.2 16.1992 31.2Z" stroke="#3A5C2B" stroke-width="2.4" stroke-linecap="round" stroke-linejoin="round"/>
</svg>
