<svg width="18" height="24" viewBox="0 0 18 24" fill="none" xmlns="http://www.w3.org/2000/svg">
<path d="M3.85714 19.2857C3.49286 19.2857 3.18771 19.1623 2.94171 18.9154C2.69571 18.6686 2.57229 18.3634 2.57143 18C2.57057 17.6366 2.694 17.3314 2.94171 17.0846C3.18943 16.8377 3.49457 16.7143 3.85714 16.7143C4.21971 16.7143 4.52529 16.8377 4.77386 17.0846C5.02243 17.3314 5.14543 17.6366 5.14286 18C5.14029 18.3634 5.01686 18.669 4.77257 18.9167C4.52829 19.1644 4.22314 19.2874 3.85714 19.2857ZM9 19.2857C8.63571 19.2857 8.33057 19.1623 8.08457 18.9154C7.83857 18.6686 7.71514 18.3634 7.71429 18C7.71343 17.6366 7.83686 17.3314 8.08457 17.0846C8.33229 16.8377 8.63743 16.7143 9 16.7143C9.36257 16.7143 9.66814 16.8377 9.91671 17.0846C10.1653 17.3314 10.2883 17.6366 10.2857 18C10.2831 18.3634 10.1597 18.669 9.91543 18.9167C9.67114 19.1644 9.366 19.2874 9 19.2857ZM14.1429 19.2857C13.7786 19.2857 13.4734 19.1623 13.2274 18.9154C12.9814 18.6686 12.858 18.3634 12.8571 18C12.8563 17.6366 12.9797 17.3314 13.2274 17.0846C13.4751 16.8377 13.7803 16.7143 14.1429 16.7143C14.5054 16.7143 14.811 16.8377 15.0596 17.0846C15.3081 17.3314 15.4311 17.6366 15.4286 18C15.426 18.3634 15.3026 18.669 15.0583 18.9167C14.814 19.1644 14.5089 19.2874 14.1429 19.2857ZM1.28571 14.1429C0.921429 14.1429 0.616286 14.0194 0.370286 13.7726C0.124286 13.5257 0.000857143 13.2206 0 12.8571V11.5714C0 9.3 0.728571 7.32858 2.18571 5.65715C3.64286 3.98572 5.48571 3 7.71429 2.7V1.28572C7.71429 0.921433 7.83771 0.615862 8.08457 0.369004C8.33143 0.122147 8.63657 -0.000852694 9 4.44884e-06C9.36343 0.000861592 9.669 0.12429 9.91671 0.37029C10.1644 0.61629 10.2874 0.921433 10.2857 1.28572V2.7C12.5143 3 14.3571 3.98572 15.8143 5.65715C17.2714 7.32858 18 9.3 18 11.5714V12.8571C18 13.2214 17.8766 13.527 17.6297 13.7739C17.3829 14.0207 17.0777 14.1437 16.7143 14.1429H1.28571ZM2.57143 11.5714H15.4286C15.4286 9.79286 14.8016 8.277 13.5476 7.02386C12.2936 5.77072 10.7777 5.14372 9 5.14286C7.22229 5.142 5.70643 5.769 4.45243 7.02386C3.19843 8.27872 2.57143 9.79458 2.57143 11.5714ZM3.85714 23.1429C3.49286 23.1429 3.18771 23.0194 2.94171 22.7726C2.69571 22.5257 2.57229 22.2206 2.57143 21.8571C2.57057 21.4937 2.694 21.1886 2.94171 20.9417C3.18943 20.6949 3.49457 20.5714 3.85714 20.5714C4.21971 20.5714 4.52529 20.6949 4.77386 20.9417C5.02243 21.1886 5.14543 21.4937 5.14286 21.8571C5.14029 22.2206 5.01686 22.5261 4.77257 22.7739C4.52829 23.0216 4.22314 23.1446 3.85714 23.1429ZM9 23.1429C8.63571 23.1429 8.33057 23.0194 8.08457 22.7726C7.83857 22.5257 7.71514 22.2206 7.71429 21.8571C7.71343 21.4937 7.83686 21.1886 8.08457 20.9417C8.33229 20.6949 8.63743 20.5714 9 20.5714C9.36257 20.5714 9.66814 20.6949 9.91671 20.9417C10.1653 21.1886 10.2883 21.4937 10.2857 21.8571C10.2831 22.2206 10.1597 22.5261 9.91543 22.7739C9.67114 23.0216 9.366 23.1446 9 23.1429ZM14.1429 23.1429C13.7786 23.1429 13.4734 23.0194 13.2274 22.7726C12.9814 22.5257 12.858 22.2206 12.8571 21.8571C12.8563 21.4937 12.9797 21.1886 13.2274 20.9417C13.4751 20.6949 13.7803 20.5714 14.1429 20.5714C14.5054 20.5714 14.811 20.6949 15.0596 20.9417C15.3081 21.1886 15.4311 21.4937 15.4286 21.8571C15.426 22.2206 15.3026 22.5261 15.0583 22.7739C14.814 23.0216 14.5089 23.1446 14.1429 23.1429Z" fill="#5F8F4E"/>
</svg>
