<svg width="45" height="46" viewBox="0 0 45 46" fill="none" xmlns="http://www.w3.org/2000/svg">
<g clip-path="url(#clip0_514_70)">
<path d="M21.5829 45.0181H23.4594C33.6609 45.0181 38.7414 45.0181 41.8914 41.8681C45.0234 38.7181 45.0234 33.6196 45.0234 23.4541V21.5416C45.0234 11.4166 45.0234 6.31807 41.8914 3.16807C38.7414 0.0180664 33.6429 0.0180664 23.4594 0.0180664H21.5829C11.3814 0.0180664 6.30094 0.0180664 3.15094 3.16807C0.0234375 6.31807 0.0234375 11.4211 0.0234375 21.5821V23.4946C0.0234375 33.6196 0.0234375 38.7181 3.17344 41.8681C6.32344 45.0181 11.4219 45.0181 21.5829 45.0181Z" fill="#0077FF"/>
<path d="M23.9676 32.436C13.7121 32.436 7.86214 25.407 7.61914 13.707H12.7581C12.9291 22.293 16.7136 25.9335 19.7151 26.6805V13.707H24.5526V21.114C27.5136 20.7945 30.6276 17.4195 31.6761 13.707H36.5136C35.7126 17.5995 33.3276 20.9835 29.9301 23.0445C33.7236 24.93 36.5271 28.35 37.6341 32.436H32.3106C31.3071 28.845 28.2471 26.208 24.5481 25.74V32.436H23.9676Z" fill="white"/>
</g>
<defs>
<clipPath id="clip0_514_70">
<rect width="45" height="46" fill="white"/>
</clipPath>
</defs>
</svg>
