<svg width="18" height="10" viewBox="0 0 18 10" fill="none" xmlns="http://www.w3.org/2000/svg">
<path d="M0 1.5C0 1.10218 0.17779 0.720644 0.494257 0.43934C0.810725 0.158035 1.23995 0 1.6875 0L16.3125 0C16.7601 0 17.1893 0.158035 17.5057 0.43934C17.8222 0.720644 18 1.10218 18 1.5V3C18 3.13261 17.9407 3.25979 17.8352 3.35355C17.7298 3.44732 17.5867 3.5 17.4375 3.5C16.9899 3.5 16.5607 3.65804 16.2443 3.93934C15.9278 4.22064 15.75 4.60218 15.75 5C15.75 5.39782 15.9278 5.77936 16.2443 6.06066C16.5607 6.34196 16.9899 6.5 17.4375 6.5C17.5867 6.5 17.7298 6.55268 17.8352 6.64645C17.9407 6.74021 18 6.86739 18 7V8.5C18 8.89782 17.8222 9.27936 17.5057 9.56066C17.1893 9.84196 16.7601 10 16.3125 10L1.6875 10C1.23995 10 0.810725 9.84196 0.494257 9.56066C0.17779 9.27936 0 8.89782 0 8.5L0 7C0 6.86739 0.0592632 6.74021 0.164752 6.64645C0.270242 6.55268 0.413316 6.5 0.5625 6.5C1.01005 6.5 1.43928 6.34196 1.75574 6.06066C2.07221 5.77936 2.25 5.39782 2.25 5C2.25 4.60218 2.07221 4.22064 1.75574 3.93934C1.43928 3.65804 1.01005 3.5 0.5625 3.5C0.413316 3.5 0.270242 3.44732 0.164752 3.35355C0.0592632 3.25979 0 3.13261 0 3L0 1.5ZM1.6875 1C1.53832 1 1.39524 1.05268 1.28975 1.14645C1.18426 1.24021 1.125 1.36739 1.125 1.5L1.125 2.55C1.76079 2.66476 2.33239 2.97136 2.74296 3.41787C3.15353 3.86438 3.37782 4.42332 3.37782 5C3.37782 5.57668 3.15353 6.13562 2.74296 6.58213C2.33239 7.02864 1.76079 7.33524 1.125 7.45V8.5C1.125 8.63261 1.18426 8.75979 1.28975 8.85355C1.39524 8.94732 1.53832 9 1.6875 9L16.3125 9C16.4617 9 16.6048 8.94732 16.7102 8.85355C16.8157 8.75979 16.875 8.63261 16.875 8.5V7.45C16.2392 7.33524 15.6676 7.02864 15.257 6.58213C14.8465 6.13562 14.6222 5.57668 14.6222 5C14.6222 4.42332 14.8465 3.86438 15.257 3.41787C15.6676 2.97136 16.2392 2.66476 16.875 2.55V1.5C16.875 1.36739 16.8157 1.24021 16.7102 1.14645C16.6048 1.05268 16.4617 1 16.3125 1L1.6875 1Z" fill="#5F8F4E"/>
</svg>
